<svg xmlns="http://www.w3.org/2000/svg" width="154.49" height="163.521" viewBox="0 0 154.49 163.521">
  <g id="Group_67" data-name="Group 67" transform="translate(-2599.273 -420.178)">
    <g id="Group_61" data-name="Group 61" transform="translate(2599.273 420.178)">
      <path id="Path_76" data-name="Path 76" d="M2680.248,420.178h-70.017a10.99,10.99,0,0,0-10.958,10.958v141.6a10.99,10.99,0,0,0,10.958,10.958h70.017a10.99,10.99,0,0,0,10.958-10.958v-141.6A10.99,10.99,0,0,0,2680.248,420.178Zm-48.191,10.135c0-1.6.958-2.913,2.131-2.913h22.1c1.171,0,2.13,1.311,2.13,2.913v.214c0,1.6-.958,2.913-2.13,2.913h-22.1c-1.172,0-2.131-1.311-2.131-2.913Zm20.82,144.794H2637.6a5.031,5.031,0,1,1,0-10.062h15.275a5.031,5.031,0,1,1,0,10.062Zm28.25-22.483a3.68,3.68,0,0,1-3.68,3.681h-64.414a3.681,3.681,0,0,1-3.681-3.681V444.314a3.682,3.682,0,0,1,3.681-3.681h64.414a3.681,3.681,0,0,1,3.68,3.681Z" transform="translate(-2599.273 -420.178)" fill="#cc3d38"/>
    </g>
    <path id="Path_77" data-name="Path 77" d="M2648.166,475.65c-16.408,0-29.71,13.589-29.71,30.353s13.3,30.352,29.71,30.352,29.71-13.589,29.71-30.352S2664.574,475.65,2648.166,475.65Zm16.915,33.138-24.126,14.231a3.148,3.148,0,0,1-4.721-2.785V491.772a3.147,3.147,0,0,1,4.721-2.785l24.126,14.231A3.251,3.251,0,0,1,2665.081,508.788Z" transform="translate(-2.927 -8.463)" fill="#cc3d38"/>
    <path id="Path_78" data-name="Path 78" d="M2754.137,465.229a57.8,57.8,0,0,1-.232,87.166" transform="translate(-23.593 -6.874)" fill="none" stroke="#cc3d38" stroke-linecap="round" stroke-miterlimit="10" stroke-width="7"/>
    <path id="Path_79" data-name="Path 79" d="M2728.943,485.486a34.032,34.032,0,0,1-.291,52.891" transform="translate(-19.74 -9.964)" fill="none" stroke="#cc3d38" stroke-linecap="round" stroke-miterlimit="10" stroke-width="7"/>
  </g>
</svg>
