<svg xmlns="http://www.w3.org/2000/svg" width="151.634" height="165.699" viewBox="0 0 151.634 165.699">
  <g id="Group_69" data-name="Group 69" transform="translate(-3165.012 -424.678)">
    <path id="Path_80" data-name="Path 80" d="M3294.815,429.617a60.938,60.938,0,0,1-.245,91.9" transform="translate(-2.457)" fill="none" stroke="#cc3d38" stroke-linecap="round" stroke-miterlimit="10" stroke-width="7"/>
    <path id="Path_81" data-name="Path 81" d="M3271.866,448.075a35.879,35.879,0,0,1-.306,55.763" transform="translate(-2.009 -0.36)" fill="none" stroke="#cc3d38" stroke-linecap="round" stroke-miterlimit="10" stroke-width="7"/>
    <path id="Path_82" data-name="Path 82" d="M3189.3,429.617a60.939,60.939,0,0,0,.244,91.9" transform="translate(0)" fill="none" stroke="#cc3d38" stroke-linecap="round" stroke-miterlimit="10" stroke-width="7"/>
    <path id="Path_83" data-name="Path 83" d="M3212.4,448.075a35.879,35.879,0,0,0,.306,55.763" transform="translate(-0.599 -0.36)" fill="none" stroke="#cc3d38" stroke-linecap="round" stroke-miterlimit="10" stroke-width="7"/>
    <g id="Group_64" data-name="Group 64" transform="translate(3199.046 457.63)">
      <g id="Group_63" data-name="Group 63">
        <path id="Path_84" data-name="Path 84" d="M3275.332,565.321h-9.772a6.079,6.079,0,0,0-.067-.84L3253.961,491a18.8,18.8,0,1,0-25.053,0l-11.531,73.476a6.041,6.041,0,0,0-.066.84h-9.772a7.886,7.886,0,0,0-7.887,7.886v9.841a7.886,7.886,0,0,0,7.887,7.886h67.792a7.886,7.886,0,0,0,7.886-7.886v-9.841A7.886,7.886,0,0,0,3275.332,565.321ZM3240.683,495.8h1.506l6.085,38.775H3234.6Zm-8.027,51.15h17.561l1.931,12.3h-21.422Z" transform="translate(-3199.653 -458.187)" fill="#cc3d38"/>
      </g>
    </g>
  </g>
</svg>
